<?xml version="1.0" encoding="UTF-8"?>
<!DOCTYPE svg PUBLIC "-//W3C//DTD SVG 1.1//EN" "http://www.w3.org/Graphics/SVG/1.1/DTD/svg11.dtd">
<!-- Creator: CorelDRAW X6 -->
<svg xmlns="http://www.w3.org/2000/svg" xml:space="preserve" width="8.055in" height="1.568in" version="1.1" style="shape-rendering:geometricPrecision; text-rendering:geometricPrecision; image-rendering:optimizeQuality; fill-rule:evenodd; clip-rule:evenodd"
viewBox="0 0 8055 1568"
 xmlns:xlink="http://www.w3.org/1999/xlink">
 <defs>
  <style type="text/css">
   <![CDATA[
    .fil0 {fill:#3080E3}
   ]]>
  </style>
 </defs>
 <g id="Layer_x0020_1">
  <metadata id="CorelCorpID_0Corel-Layer"/>
  <g id="_705125184">
   <path class="fil0" d="M4983 818l-23 140c120,13 519,9 620,-25 213,-72 310,-275 239,-404 -69,-125 -392,-124 -426,-228 -69,-211 399,-147 494,-159l43 -138c-206,4 -435,-37 -584,69 -114,82 -253,292 -60,418 88,58 503,103 300,267 -124,100 -417,53 -604,59z"/>
   <path class="fil0" d="M193 818c-25,40 -27,85 -36,138 114,18 528,8 629,-27 206,-71 292,-269 234,-392 -64,-136 -390,-126 -430,-238 -74,-207 401,-148 492,-156l45 -139c-217,3 -443,-37 -594,75 -111,82 -238,308 -42,417 117,65 475,93 300,257 -116,109 -415,57 -598,65z"/>
   <path class="fil0" d="M1493 829c-39,-161 97,-203 248,-194 -2,167 -97,244 -248,194zm-99 -347l156 1c38,-52 41,-96 143,-84 73,9 90,58 69,129 -111,26 -415,-24 -451,245 -15,112 46,174 147,186 137,17 180,-35 259,-82 1,74 -35,67 155,67 23,-159 118,-524 15,-607 -129,-105 -482,-56 -494,146z"/>
   <path class="fil0" d="M6373 416c252,-129 225,355 44,423 -258,96 -205,-340 -44,-423zm-30 -113c-365,99 -406,785 112,644 360,-98 412,-786 -112,-644z"/>
   <path class="fil0" d="M4412 403c3,-59 8,-56 -11,-82l-150 1 -111 636 164 2c91,-197 -12,-607 312,-531 69,119 -22,374 -41,532l172 -2c46,-334 197,-662 -123,-655 -111,2 -148,45 -211,98z"/>
   <path class="fil0" d="M2601 855l1 86 153 1 115 -633 -163 -4c-80,141 -12,499 -214,541 -227,47 -76,-398 -60,-541l-171 1c-14,127 -96,434 -66,540 34,119 230,187 405,9z"/>
   <path class="fil0" d="M7013 323l-19 112 109 -1 -89 525 172 0 92 -523 131 -6 18 -108 -126 -2c15,-150 19,-169 168,-178l14 -108c-240,-5 -304,13 -344,219 -18,94 -21,64 -126,68z"/>
   <path class="fil0" d="M3233 303l-117 6 -16 104 113 3c-46,322 -193,619 202,534 22,-35 23,-58 28,-105 -147,15 -127,-42 -104,-167 17,-90 31,-173 47,-261l128 -3 24 -106 -125 -3 23 -182 -175 1 -28 179z"/>
   <path class="fil0" d="M7747 304l-81 4c-45,10 -18,3 -35,13l-15 84 113 15c-16,84 -73,359 -66,430 15,163 258,101 258,101 38,-20 11,19 28,-40 4,-13 7,-50 9,-67 -192,18 -107,-77 -57,-428l132 -3 22 -109 -127 0 23 -182 -165 3 -38 179z"/>
   <polygon class="fil0" points="3679,960 3851,959 3963,322 3790,322 "/>
   <path class="fil0" d="M2116 1455c-14,-107 11,-143 -35,-184 -43,20 -43,-55 -28,148 4,50 -2,104 28,137 103,-6 54,-90 145,-201l20 174c10,28 0,10 15,27 65,-3 45,3 99,-122 22,-51 53,-111 64,-163 -72,2 -58,8 -83,75 -15,39 -28,78 -48,110l-22 -184c-120,-4 -61,29 -156,182z"/>
   <path class="fil0" d="M5512 1557c67,-13 34,-36 77,-204 5,37 8,68 11,106 3,44 0,69 24,98 63,-6 79,-68 133,-203 -2,38 -7,64 -15,102 -1,6 -9,47 -9,49 -1,73 -11,25 15,53 38,-12 24,40 52,-126 9,-53 21,-105 24,-157l-82 0 -82 177 -19 -76c-4,-40 -3,-59 -12,-100l-81 -1c-15,49 -20,93 -29,140l-18 105c1,35 -3,19 10,39z"/>
   <path class="fil0" d="M3249 1321c58,-4 70,-12 114,16 -10,71 -46,61 -126,53l12 -68zm-85 236c58,-6 32,19 51,-45 8,-28 7,-49 17,-75 71,9 79,58 109,120l66 -4c-19,-43 -43,-90 -61,-120 65,-43 93,-44 70,-143 -41,-16 -59,-17 -114,-19 -71,-2 -94,-16 -111,37 -3,8 -50,211 -27,248z"/>
   <path class="fil0" d="M7095 1557c47,-12 37,-10 48,-76 5,-30 9,-69 22,-96 23,26 34,62 49,97 29,68 22,72 92,75l52 -284c-116,0 -29,74 -96,177 -13,-39 -28,-65 -47,-107 -28,-63 -12,-69 -78,-70 -11,15 -77,241 -42,284z"/>
   <path class="fil0" d="M583 1490c-37,-176 129,-222 159,-134 32,95 -50,197 -159,134zm53 -214c-179,59 -165,344 52,279 161,-48 165,-350 -52,-279z"/>
   <path class="fil0" d="M5027 1489c-61,-132 93,-229 146,-146 43,66 -36,232 -146,146zm45 -211c-192,64 -142,353 69,271 150,-59 144,-342 -69,-271z"/>
   <path class="fil0" d="M176 1461c-7,36 -22,66 -76,51 -89,-24 19,-55 -100,-48 2,151 254,138 232,-44 -52,-38 -110,-39 -145,-72 13,-20 27,-45 70,-31 72,23 -19,35 94,35 -14,-140 -170,-79 -199,-45 -89,106 81,120 124,154z"/>
   <path class="fil0" d="M3680 1556l151 1c71,0 49,13 73,-26 -17,-14 1,-20 -73,-20l-79 0 3 -80c29,0 83,4 106,2 52,-5 41,7 50,-40l-143 -9c13,-74 -6,-65 77,-66 71,0 83,24 98,-36 -262,-49 -222,35 -233,100 -10,60 -23,116 -29,176z"/>
   <path class="fil0" d="M2719 1445c8,-28 8,-31 24,-58 17,-29 12,-20 36,-40l12 98 -72 1zm-125 112c83,-3 57,-9 94,-66l117 0c18,64 -3,69 77,62l-65 -283c-91,5 -91,50 -129,117 -32,56 -72,112 -93,170z"/>
   <path class="fil0" d="M6690 1347c29,38 26,51 28,98l-74 -5 46 -93zm-169 210c82,-4 53,-2 93,-64l107 -1c54,64 -20,62 85,66l-62 -283c-91,-8 -96,56 -128,110 -31,54 -77,117 -95,173z"/>
   <path class="fil0" d="M6169 1325c137,-27 141,75 -12,79l12 -79zm-100 229c85,5 56,-23 79,-104 129,0 206,-26 173,-159 -61,-23 -117,-18 -195,-18l-57 282z"/>
   <path class="fil0" d="M4665 1464c-68,-5 -44,12 -86,37 -18,11 -10,14 -37,11 -95,-12 -60,-204 40,-198 50,3 38,47 78,42 66,-8 15,-3 34,-20 -66,-135 -239,-64 -264,72 -37,195 213,194 235,56z"/>
   <polygon class="fil0" points="3803,212 3984,212 4020,44 3830,43 "/>
   <path class="fil0" d="M1056 1553l55 4 26 -122c19,0 56,2 71,1 82,-6 38,7 57,-31 -37,-26 -37,-17 -114,-17l5 -64c83,-17 134,23 149,-44 -46,-19 -132,-9 -191,-9l-56 282z"/>
   <path class="fil0" d="M7683 1554l53 4c59,-252 107,-165 151,-287 -91,3 -95,51 -135,106 -42,-35 -29,-49 -58,-96l-64 -9c48,157 76,74 53,282z"/>
   <path class="fil0" d="M1564 1295c18,31 -9,15 82,29l-32 174c-8,58 2,49 8,60 64,-8 57,-73 83,-237 73,-3 85,18 92,-47 -40,-1 -79,-1 -119,-1 -13,0 -60,-2 -70,-1 -74,10 -16,6 -45,24z"/>
  </g>
 </g>
</svg>
